<?xml version="1.0" encoding="UTF-8" standalone="no"?>
<svg
   xmlns:dc="http://purl.org/dc/elements/1.1/"
   xmlns:cc="http://creativecommons.org/ns#"
   xmlns:rdf="http://www.w3.org/1999/02/22-rdf-syntax-ns#"
   xmlns:svg="http://www.w3.org/2000/svg"
   xmlns="http://www.w3.org/2000/svg"
   id="svg47"
   version="1.1"
   viewBox="15.5 15.5 224.5 224.5">
  <metadata
     id="metadata51">
    <rdf:RDF>
      <cc:Work
         rdf:about="">
        <dc:format>image/svg+xml</dc:format>
        <dc:type
           rdf:resource="http://purl.org/dc/dcmitype/StillImage" />
        <dc:title></dc:title>
      </cc:Work>
    </rdf:RDF>
  </metadata>
  <defs
     id="defs29">
    <radialGradient
       id="r"
       cx="0.5"
       cy="0">
      <stop
         id="stop2"
         stop-color="#f06b59" />
      <stop
         id="stop4"
         stop-color="#df2227"
         offset="1" />
    </radialGradient>
    <radialGradient
       id="g"
       cx="0.65"
       cy="0.3"
       r="0.76">
      <stop
         id="stop7"
         stop-color="#4cb749"
         offset="0.65" />
      <stop
         id="stop9"
         stop-color="#388b41"
         offset="1" />
    </radialGradient>
    <radialGradient
       id="y"
       cx="0.36"
       cy="0.25"
       r="0.8">
      <stop
         id="stop12"
         stop-color="#FCD209"
         offset="0.6" />
      <stop
         id="stop14"
         stop-color="#f7c616"
         offset="0.7" />
      <stop
         id="stop16"
         stop-color="#bc821e"
         offset="1" />
    </radialGradient>
    <radialGradient
       id="cf"
       spreadMethod="pad"
       cx="0.5"
       cy="0"
       r="1">
      <stop
         id="stop19"
         stop-color="#7FB3DF"
         offset="0.1" />
      <stop
         id="stop21"
         stop-color="#0F5B94"
         offset="0.9" />
    </radialGradient>
    <radialGradient
       cx="0.5"
       cy="0"
       r="1"
       id="cb">
      <stop
         id="stop24"
         stop-color="#F6F0EE"
         offset="0" />
      <stop
         id="stop26"
         stop-color="#ddd"
         offset="1" />
    </radialGradient>
  </defs>
  <path
     id="path31"
     fill-opacity="0.1"
     d="m198,148a70,70 0 0 0 -140,0l20,0a50,50 0 0 1 100,0" />
  <circle
     id="circle33"
     stroke-width="9"
     stroke="url(#cb)"
     fill="url(#cf)"
     cy="127.6"
     cx="127.5"
     r="45" />
  <path
     id="path35"
     fill="url(#r)"
     d="m228,78a112,112 0 0 0 -193,-13l45,78a50,50 0 0 1 47,-65" />
  <path
     id="path37"
     fill="url(#g)"
     d="m35,65a112,112 0 0 0 84,174l47,-80a50,50 0 0 1 -86,-16" />
  <path
     id="path39"
     fill="url(#y)"
     d="m119,239a112,112 0 0 0 109,-161l-101,0a50,50 0 0 1 39,81" />
  <path
     id="path41"
     opacity="0.075"
     d="m35,65l45,78a50,50 0 0 1 2,-34l-45,-47" />
  <path
     id="path43"
     opacity="0.05"
     d="m119,239l47,-80a50,50 0 0 1 -29,17l-20,63" />
  <path
     id="path45"
     opacity="0.05"
     d="m228,78l-101,0a50,50 0 0 1 39,19l64,-16" />
</svg>
